<svg width="32" height="32" viewBox="16 16 42 42" fill="none" xmlns="http://www.w3.org/2000/svg">
  <path d="M18.5 36C18.5 26.0589 26.5589 18 36.5 18V18C46.4411 18 54.5 26.0589 54.5 36V36C54.5 45.9411 46.4411 54 36.5 54V54C26.5589 54 18.5 45.9411 18.5 36V36Z" fill="url(#paint0_linear_576_6)"/>
  <g opacity="0.8">
    <rect x="29.9292" y="43.4854" width="9" height="9" rx="2" transform="rotate(-45 29.9292 43.4854)" fill="white" fill-opacity="0.5"/>
    <rect x="30.2828" y="43.4854" width="8.5" height="8.5" rx="1.75" transform="rotate(-45 30.2828 43.4854)" stroke="white" stroke-opacity="0.8" stroke-width="0.5"/>
  </g>
  <rect opacity="0.8" x="29.9292" y="28.5146" width="9" height="9" rx="2" transform="rotate(-45 29.9292 28.5146)" fill="white"/>
  <rect opacity="0.8" x="37.4146" y="36" width="9" height="9" rx="2" transform="rotate(-45 37.4146 36)" fill="white"/>
  <rect opacity="0.8" x="22.4438" y="36" width="9" height="9" rx="2" transform="rotate(-45 22.4438 36)" fill="white"/>
  <defs>
    <linearGradient id="paint0_linear_576_6" x1="18.5" y1="18" x2="54.5" y2="54" gradientUnits="userSpaceOnUse">
      <stop offset="0.0136681" stop-color="#34D39B"/>
      <stop offset="1" stop-color="#047859"/>
    </linearGradient>
  </defs>
</svg>
